<svg xmlns="http://www.w3.org/2000/svg" width="190" height="48" viewBox="0 0 190 48" fill="none"><path d="M22.72 13.155a5.498 5.498 0 0 1-5.52 5.499 5.498 5.498 0 0 1-5.518-5.499A5.498 5.498 0 0 1 17.2 7.657c3.024 0 5.518 2.485 5.518 5.498Z" fill="#FFC947"></path><path d="M71.379 4.1a.01.01 0 0 1-.005.003c-2.2 1.403-4.615 3.594-6.653 5.631a69.07 69.07 0 0 0-4.194 4.488l-.36.43-.144.17.001.002a83.559 83.559 0 0 0-5.456 7.32c-.3.466-.6.9-.898 1.273-.12.155-.24.28-.33.405-.633.752-1.265 1.35-1.883 1.797a6.78 6.78 0 0 1-1.235.692c-3.608 2.295-7.315 3.168-10.018-4.027l-.005-.015c-.026-.07-.053-.141-.078-.212l-.015-.042-.078-.217a.1.1 0 0 1-.007-.018l-.084-.244-.015-.041-.066-.2-.023-.07c-.021-.062-.04-.126-.062-.19l-.02-.06-.078-.252c-.005-.013-.008-.028-.012-.043l-.065-.215c-.009-.026-.016-.055-.024-.083a19.63 19.63 0 0 1-.056-.19l-.023-.08-.076-.268-.075-.267a44.35 44.35 0 0 0-.095-.336l-.025-.084-.037-.128-.027-.093c-.01-.037-.02-.073-.032-.11l-.031-.108-.044-.15-.019-.064-.043-.142-.02-.068-.044-.142-.02-.065c-.013-.044-.026-.088-.04-.13a5.387 5.387 0 0 0-.022-.072c-.013-.047-.028-.092-.041-.137a1.242 1.242 0 0 0-.02-.063l-.049-.158-.011-.038c-.015-.047-.03-.092-.043-.138l-.017-.055a6.287 6.287 0 0 0-.045-.142l-.015-.047-.037-.114-.023-.073-.037-.111-.023-.071-.05-.152-.01-.027c-.015-.049-.032-.097-.048-.146l-.01-.03a5.353 5.353 0 0 1-.043-.128l-.014-.044-.038-.11-.02-.058-.04-.115-.018-.05-.038-.108-.02-.056-.036-.104-.02-.056-.039-.109-.017-.046-.044-.12-.012-.033-.041-.108-.015-.04-.036-.098-.019-.05-.041-.108c-.004-.01-.01-.022-.013-.033-.013-.034-.025-.067-.039-.1l-.016-.04-.037-.093c-.006-.015-.01-.03-.017-.044l-.04-.1-.014-.033-.038-.094-.014-.037c-.014-.03-.026-.062-.038-.093l-.015-.035-.036-.083-.018-.043c-.012-.027-.023-.054-.036-.08-.006-.014-.01-.027-.017-.04l-.035-.082c-.007-.012-.011-.025-.018-.037-.01-.026-.022-.05-.033-.076l-.018-.04-.033-.072a4.937 4.937 0 0 0-.019-.04c-.01-.026-.023-.05-.034-.075l-.016-.036c-.01-.024-.023-.049-.034-.073l-.016-.034a1.868 1.868 0 0 0-.034-.07l-.016-.034-.033-.068-.018-.033c-.01-.022-.022-.043-.033-.065l-.017-.034c-.01-.022-.023-.044-.034-.066l-.015-.03-.035-.066a.183.183 0 0 1-.014-.026l-.034-.064-.015-.025a2.337 2.337 0 0 0-.048-.088c-.01-.02-.02-.038-.032-.057l-.016-.028-.031-.053-.016-.029-.031-.05-.016-.029-.03-.05c-.006-.009-.012-.017-.017-.027l-.031-.05-.015-.024-.032-.05-.015-.021c-.01-.016-.02-.032-.032-.048a.31.31 0 0 0-.014-.02l-.03-.045-.016-.022a.828.828 0 0 0-.045-.063l-.03-.042c-.006-.006-.01-.013-.015-.02l-.031-.04a.487.487 0 0 0-.044-.056l-.015-.018-.03-.037c-.005-.006-.01-.01-.014-.017l-.03-.035a551437083928.844 551437083928.844 0 0 1-.043-.049l-.014-.016-.03-.033-.013-.013-.03-.03c-.004-.006-.008-.01-.013-.014l-.03-.028-.013-.013a.595.595 0 0 0-.03-.026l-.013-.013-.029-.025-.014-.011-.029-.025-.012-.01a.578.578 0 0 1-.028-.023l-.013-.01-.028-.02-.012-.009c-.01-.007-.02-.013-.028-.02l-.013-.008-.028-.018-.012-.008-.028-.017a.096.096 0 0 0-.012-.007l-.029-.015c-.003-.002-.007-.005-.012-.006-.01-.005-.018-.01-.028-.013a.312.312 0 0 0-.04-.018l-.01-.005-.029-.011a.481.481 0 0 0-.01-.004l-.029-.01-.01-.003-.028-.008a.036.036 0 0 0-.01-.002l-.029-.006-.01-.003a.23.23 0 0 0-.028-.005h-.01l-.028-.005h-.01l-.028-.003-.01-.001c-.008 0-.018 0-.027-.002h-.01c-.008 0-.018 0-.027.002h-.01a.205.205 0 0 0-.026.002l-.009.001-.027.004-.008.001-.027.005-.009.001-.027.006c-.002.002-.005.002-.008.003a.178.178 0 0 0-.027.008l-.008.003a.25.25 0 0 0-.027.01c-.002 0-.005 0-.007.002l-.027.011a.018.018 0 0 1-.008.002l-.026.013c-.003 0-.005.002-.008.003l-.027.014-.007.003-.027.015a.336.336 0 0 0-.033.02l-.006.005-.027.018c-.003.001-.004.002-.006.005-.009.006-.019.012-.027.02-.003 0-.004.002-.007.004-.008.008-.018.014-.026.02-.003.002-.004.005-.007.006l-.027.022-.006.005a.499.499 0 0 0-.027.024l-.005.005-.027.026-.005.005c-.01.008-.018.018-.026.026l-.005.005a.562.562 0 0 1-.027.028l-.005.005-.027.03-.004.006a.631.631 0 0 0-.058.07.017.017 0 0 0-.003.004c-.01.011-.019.023-.028.036-.002 0-.003.002-.003.003l-.028.037-.002.003-.029.038c0 .002 0 .003-.002.004l-.028.04-.003.004a.494.494 0 0 0-.027.042s0 .002-.002.003c-.009.014-.019.028-.027.043l-.003.004a.8.8 0 0 0-.028.046l-.028.046-.001.002-.028.047c0 .002-.002.002-.002.003l-.028.05-.001.001-.028.053-.028.053a7.02 7.02 0 0 0-.276.606v.001l.03-.034a.364.364 0 0 1 .032-.027l.008-.005a.146.146 0 0 1 .096-.027h.002l.02.005a.19.19 0 0 1 .06.032l.006.004c.008.007.018.014.027.024l.018.02.012.014.021.027.025.036.012.018c.057.095.124.238.2.452.01.022.017.045.024.067.139.408.526 1.763 1.092 5.727.345 2.835.634 6.149 1.112 9.42 1.205 11.943 5.704 16.145 11.279 15.898 5.574-.247 8.757-9.153 10.321-12.664.726-1.605 1.46-3.288 2.227-5.002 1.882-4.115 4.554-9.578 7.297-13.583 1.487-2.09 3.141-4.01 5.018-5.64.302-.238.58-.47.84-.698 4.226-3.721 2.532-5.814-2.257-2.76Z" fill="#2CC981"></path><path d="M39.744 11.365C37.408-1.84 31.898-6.437 27.226 14.223 22.555 34.914 8.99 19.287 3.27 15.993c-4.361-2.509-3.86 1.94-1.059 7.939l.007.016c.13.277.264.556.404.84a61.038 61.038 0 0 0 3.96 6.84c3.684 5.656 9.261 12.365 15.019 12.427l.093.001h.036s.213.014.57-.034l.033-.004h.005c1.17-.141 2.202-.668 3.118-1.489.821-.702 1.664-1.727 2.397-3.22 2.154-4.042 3.368-10.01 4.166-15.27v-.03c.36-2.361.629-4.567.868-6.4.09-.56.15-1.057.21-1.554.27-1.74.479-2.95.748-3.262v-.002a6.81 6.81 0 0 1 .276-.606l.029-.053.028-.053.03-.05v-.003l.029-.048v-.001l.029-.047.002-.002.027-.044.003-.004.027-.042.002-.004.027-.042.003-.003.028-.04.002-.004.028-.038.003-.004.028-.036.003-.004.028-.036a.02.02 0 0 0 .004-.004l.026-.033a.015.015 0 0 0 .004-.005l.027-.032.004-.005.027-.03c.001-.002.002-.004.005-.005a.562.562 0 0 1 .027-.028c0-.002.002-.003.005-.005.008-.01.018-.019.027-.027l.004-.005.027-.026c.002 0 .004-.003.005-.005.009-.008.019-.015.027-.024.003-.001.004-.004.006-.005l.027-.022c.003-.001.004-.004.006-.005a.405.405 0 0 1 .027-.02l.006-.005.027-.02a.02.02 0 0 0 .007-.005l.027-.018.006-.004c.008-.006.018-.01.027-.017.002-.001.005-.002.006-.004l.027-.014a.516.516 0 0 1 .034-.017l.008-.004.026-.012a.017.017 0 0 1 .008-.003l.027-.01c.002-.002.005-.002.007-.003l.027-.01.007-.002.027-.009.009-.002a.202.202 0 0 1 .027-.006l.008-.002a.236.236 0 0 1 .027-.005h.01l.026-.004c.003 0 .006 0 .009-.002.008 0 .018 0 .027-.002h.01l.026-.001h.037c.004 0 .006 0 .01.002l.027.003h.01l.028.005h.01l.028.006c.004 0 .006 0 .01.002l.028.006c.004.001.007.003.011.003l.028.007a.072.072 0 0 1 .01.004c.01.002.018.006.028.01.004 0 .008.002.011.003l.028.011.011.005c.01.003.019.007.029.012l.01.005.029.013c.003.003.007.004.012.007l.028.014.012.008c.01.004.019.01.029.017l.012.007.03.018.012.009c.01.006.02.013.028.02l.012.008c.01.007.02.013.028.02l.013.01.028.022.012.011.03.025a.121.121 0 0 0 .013.01l.03.027.013.012.03.027.013.012.03.028c.004.005.008.01.013.013l.03.03c.003.006.008.01.012.014l.031.033.014.016.03.033.013.016.029.035a.824.824 0 0 0 .059.072l.03.038.014.019.03.04.015.02c.01.013.021.026.031.041l.015.02.03.043.015.023.03.043a.31.31 0 0 0 .015.021l.032.048a4.2 4.2 0 0 1 .015.022l.032.049.015.024.031.05.016.027.031.05.016.028.03.052.017.028.031.053.016.028.032.057.015.028.033.06.015.025c.01.021.023.043.034.064.005.008.01.017.014.027l.035.066.015.029c.01.022.023.044.034.066l.017.034.033.065.017.033.034.068.016.034c.01.024.022.047.034.07l.016.034c.01.025.023.048.034.073l.016.036.034.074.019.04c.01.025.022.048.033.073a15.793 15.793 0 0 0 .051.116c.007.012.011.025.018.038l.035.08.017.04.036.081.018.043.036.083.014.035.038.093.015.037.038.094.014.033.04.1.017.044.037.093.016.04.04.1.011.033c.014.037.029.072.042.109l.018.049.037.098.015.04.04.109.013.032.044.12c.006.016.01.032.017.047l.04.108c.005.019.013.037.019.056l.037.104.02.056c.011.036.025.071.037.108l.017.05.04.115.02.057.038.111.015.044c.015.043.03.086.043.129l.01.029.049.146.008.027c.018.05.033.1.05.152l.024.07.037.112.023.073.037.114.014.047.046.142.017.055c.015.045.03.092.043.138l.011.038.049.159c.006.02.012.041.02.062.013.045.028.09.041.137l.022.072.04.13.02.065.043.142.021.068.043.142.018.063.045.15.031.11.032.11.027.092.037.128.025.085a61.883 61.883 0 0 1 .17.602l.076.269.023.079.055.19.025.084.065.214.013.043.079.252.02.06.06.19.024.071.066.2.015.04a25.02 25.02 0 0 0 .17.48l.014.04.078.213.005.015.074.194.014.038.063.159.012.032.072.18h.002c2.68 6.54 6.277 5.653 9.782 3.424-4.71 1.99-8.653-4.755-10.469-14.941Z" fill="#2B59FF"></path><path d="m76.441 40.625-7.015-23.402h4.265l3.74 12.348c.185.646.37 1.324.556 2.032.185.709.34 1.57.526 2.617.185-1.046.371-1.908.556-2.617.185-.708.372-1.386.557-2.032l3.74-12.348h4.543l3.646 12.348c.186.677.372 1.354.557 2.093.185.74.371 1.57.556 2.556.216-1.077.403-1.97.588-2.678.185-.708.371-1.324.525-1.909l3.802-12.44h4.141l-7.14 23.402h-3.986l-5.006-17.029-5.13 17.06h-4.02ZM105.368 21.626c-.649 0-1.236-.215-1.7-.678-.464-.462-.681-1.016-.681-1.694 0-.646.216-1.231.681-1.663.463-.461 1.02-.677 1.7-.677.648 0 1.235.215 1.7.677.463.462.68 1.017.68 1.663 0 .646-.215 1.23-.68 1.694a2.385 2.385 0 0 1-1.7.678Zm-1.947 19V24.797h3.925v15.827h-3.925ZM114.516 40.625h-3.925V24.797h3.647l.309 2.063c.494-.8 1.205-1.416 2.101-1.848.896-.461 1.916-.677 2.966-.677 1.979 0 3.492.585 4.512 1.755 1.02 1.17 1.514 2.771 1.514 4.803v9.731h-3.925v-8.807c0-1.324-.309-2.31-.896-2.956-.587-.646-1.422-.986-2.442-.986-1.235 0-2.163.37-2.874 1.14-.681.77-1.02 1.786-1.02 3.079v8.53h.033v.001ZM132.658 40.625h-3.925V24.798h3.585l.494 2.833-.463-.37c.309-.77.896-1.447 1.762-2.032.865-.585 1.916-.893 3.214-.893 1.391 0 2.533.37 3.431 1.077.896.74 1.514 1.694 1.854 2.895h-.648c.247-1.2.835-2.156 1.824-2.895.989-.739 2.163-1.077 3.553-1.077 1.916 0 3.4.554 4.451 1.632 1.02 1.077 1.546 2.524 1.546 4.342v10.315h-3.894v-9.33c0-1.14-.279-2.002-.866-2.587-.556-.585-1.328-.892-2.255-.892-.587 0-1.144.154-1.668.43-.494.278-.897.71-1.205 1.264-.309.554-.464 1.262-.464 2.155v8.962h-3.925v-9.361c0-1.11-.278-1.94-.835-2.525-.556-.585-1.298-.862-2.224-.862-.618 0-1.175.123-1.701.4-.526.278-.926.679-1.235 1.264-.309.554-.464 1.262-.464 2.125v8.961h.058v-.004ZM161.091 41.056c-1.669 0-2.999-.461-3.956-1.354-.989-.893-1.453-2.093-1.453-3.572 0-1.448.494-2.618 1.514-3.48 1.02-.862 2.473-1.386 4.358-1.509l4.76-.37v-.338c0-.739-.124-1.293-.402-1.755-.279-.431-.649-.77-1.144-.955-.494-.215-1.081-.308-1.731-.308-1.144 0-2.04.215-2.657.678-.618.462-.927 1.109-.927 1.94h-3.338c0-1.14.309-2.156.896-2.988.587-.832 1.422-1.509 2.503-1.971 1.081-.462 2.318-.709 3.74-.709 1.422 0 2.658.247 3.708.74a5.4 5.4 0 0 1 2.379 2.246c.557.986.835 2.217.835 3.695v9.577h-3.431l-.278-2.34c-.34.801-.989 1.478-1.979 1.971a7.435 7.435 0 0 1-3.397.803Zm1.267-2.956c1.236 0 2.194-.339 2.905-1.017.711-.677 1.081-1.631 1.081-2.864v-.831l-3.307.246c-1.235.093-2.101.37-2.596.74-.526.4-.772.922-.772 1.54 0 .708.247 1.23.711 1.6.432.401 1.113.585 1.978.585ZM173.175 47.954V24.796h3.646l.248 2.403c.463-.924 1.205-1.632 2.194-2.125.989-.493 2.071-.74 3.245-.74 1.514 0 2.844.339 3.925 1.017 1.113.678 1.978 1.632 2.596 2.864.618 1.231.927 2.648.927 4.311 0 1.632-.278 3.11-.866 4.373-.587 1.293-1.421 2.279-2.533 3.018-1.113.739-2.442 1.109-4.049 1.109-1.174 0-2.256-.215-3.245-.678-.989-.462-1.7-1.077-2.194-1.848v9.454h-3.894Zm3.955-15.243c0 .955.185 1.785.557 2.494a4.405 4.405 0 0 0 1.546 1.724c.68.432 1.452.616 2.348.616.927 0 1.7-.215 2.379-.616.649-.43 1.175-.985 1.514-1.724.34-.74.526-1.57.526-2.494 0-.955-.185-1.786-.526-2.494a3.908 3.908 0 0 0-1.514-1.725c-.68-.43-1.452-.615-2.379-.615-.896 0-1.7.215-2.348.615a3.91 3.91 0 0 0-1.546 1.694c-.372.74-.557 1.57-.557 2.525Z" fill="#262934"></path></svg>